<?xml version="1.0" encoding="UTF-8" standalone="no"?><!DOCTYPE svg PUBLIC "-//W3C//DTD SVG 1.1//EN" "http://www.w3.org/Graphics/SVG/1.1/DTD/svg11.dtd"><svg width="100%" height="100%" viewBox="0 0 600 600" version="1.1" xmlns="http://www.w3.org/2000/svg" xmlns:xlink="http://www.w3.org/1999/xlink" xml:space="preserve" xmlns:serif="http://www.serif.com/" style="fill-rule:evenodd;clip-rule:evenodd;stroke-linejoin:round;stroke-miterlimit:1.41421;"><g id="Layer-1" serif:id="Layer 1"><path d="M299.401,299.7l0,-299.7l0,299.7Z" style="fill-rule:nonzero;stroke:#000;stroke-width:1px;"/><path d="M299.401,299.7l0,-299.7" style="fill-rule:nonzero;stroke:#000;stroke-width:30px;stroke-miterlimit:10;"/><path d="M300,134.519l-84.768,-84.768" style="fill-rule:nonzero;stroke:#000;stroke-width:30px;stroke-miterlimit:10;"/><path d="M384.768,49.751l-84.767,84.768" style="fill-rule:nonzero;stroke:#000;stroke-width:30px;stroke-miterlimit:10;"/><path d="M299.401,600l0,-299.7l0,299.7Z" style="fill-rule:nonzero;stroke:#000;stroke-width:1px;"/><path d="M299.401,300.3l0,299.7" style="fill-rule:nonzero;stroke:#000;stroke-width:30px;stroke-miterlimit:10;"/><path d="M300,465.481l-84.768,84.768" style="fill-rule:nonzero;stroke:#000;stroke-width:30px;stroke-miterlimit:10;"/><path d="M384.768,550.25l-84.767,-84.768" style="fill-rule:nonzero;stroke:#000;stroke-width:30px;stroke-miterlimit:10;"/><path d="M299.74,300.369l-259.547,-149.85" style="fill-rule:nonzero;stroke:#000;stroke-width:30px;stroke-miterlimit:10;"/><path d="M156.989,217.259l-115.795,31.027" style="fill-rule:nonzero;stroke:#000;stroke-width:30px;stroke-miterlimit:10;"/><path d="M125.961,101.464l31.027,115.795" style="fill-rule:nonzero;stroke:#000;stroke-width:30px;stroke-miterlimit:10;"/><path d="M300.26,300.669l259.547,149.85" style="fill-rule:nonzero;stroke:#000;stroke-width:30px;stroke-miterlimit:10;"/><path d="M443.611,382.741l31.027,115.794" style="fill-rule:nonzero;stroke:#000;stroke-width:30px;stroke-miterlimit:10;"/><path d="M559.406,351.714l-115.795,31.027" style="fill-rule:nonzero;stroke:#000;stroke-width:30px;stroke-miterlimit:10;"/><path d="M299.74,300.669l-259.547,149.85" style="fill-rule:nonzero;stroke:#000;stroke-width:30px;stroke-miterlimit:10;"/><path d="M156.389,382.741l-31.027,115.794" style="fill-rule:nonzero;stroke:#000;stroke-width:30px;stroke-miterlimit:10;"/><path d="M40.594,351.714l115.795,31.027" style="fill-rule:nonzero;stroke:#000;stroke-width:30px;stroke-miterlimit:10;"/><path d="M300.26,300.369l259.547,-149.85" style="fill-rule:nonzero;stroke:#000;stroke-width:30px;stroke-miterlimit:10;"/><path d="M443.011,217.259l115.795,31.027" style="fill-rule:nonzero;stroke:#000;stroke-width:30px;stroke-miterlimit:10;"/><path d="M474.039,101.464l-31.028,115.795" style="fill-rule:nonzero;stroke:#000;stroke-width:30px;stroke-miterlimit:10;"/><path d="M227.178,342.044l0,-84.088l72.822,-42.044l72.823,42.044l0,84.088l-72.823,42.043l-72.822,-42.043Z" style="fill-rule:nonzero;"/></g></svg>