<?xml version="1.0" encoding="UTF-8" standalone="no"?><!DOCTYPE svg PUBLIC "-//W3C//DTD SVG 1.1//EN" "http://www.w3.org/Graphics/SVG/1.1/DTD/svg11.dtd"><svg width="100%" height="100%" viewBox="0 0 600 600" version="1.1" xmlns="http://www.w3.org/2000/svg" xmlns:xlink="http://www.w3.org/1999/xlink" xml:space="preserve" xmlns:serif="http://www.serif.com/" style="fill-rule:evenodd;clip-rule:evenodd;stroke-linejoin:round;stroke-miterlimit:1.41421;"><g id="Layer-2" serif:id="Layer 2"><g><path d="M205.705,353.623c-190.238,-34.921 -192.74,-146.868 -192.74,-146.868c-2.774,-124.147 183.923,-209.742 252.043,-206.675c8.769,0.394 35.485,1.597 39.706,16.03c3.755,12.84 -12.42,28.869 -25.792,45.235c-4.516,5.529 -54.614,67.799 -59.063,119.986c-4.721,55.385 44.589,68.709 32.458,125.68c-1.556,7.307 -7.587,35.632 -26.441,44.587c-8.521,4.05 -16.595,2.682 -20.171,2.025Z" style="fill-rule:nonzero;"/><path d="M379.427,341.029c64.876,182.212 -30.822,240.352 -30.822,240.352c-106.127,64.476 -273.603,-54.412 -305.008,-114.937c-4.042,-7.792 -16.359,-31.531 -5.97,-42.403c9.241,-9.672 31.212,-3.679 52.071,-0.282c7.046,1.148 86.022,13.399 133.442,-8.842c50.324,-23.603 37.209,-72.97 92.614,-90.95c7.105,-2.305 34.65,-11.245 51.833,0.605c7.768,5.357 10.62,13.032 11.84,16.457Z" style="fill-rule:nonzero;"/><path d="M281.659,196.879c125.362,-147.29 223.562,-93.484 223.562,-93.484c108.901,59.671 89.68,264.153 52.965,321.614c-4.726,7.396 -19.127,29.932 -33.737,26.371c-12.997,-3.167 -18.791,-25.191 -26.279,-44.954c-2.529,-6.676 -31.408,-81.196 -74.378,-111.143c-45.605,-31.78 -81.799,4.261 -125.071,-34.731c-5.551,-5 -27.065,-24.386 -25.395,-45.192c0.755,-9.404 5.976,-15.712 8.333,-18.481Z" style="fill-rule:nonzero;"/></g></g></svg>