<?xml version="1.0" encoding="UTF-8" standalone="no"?><!DOCTYPE svg PUBLIC "-//W3C//DTD SVG 1.1//EN" "http://www.w3.org/Graphics/SVG/1.1/DTD/svg11.dtd"><svg width="100%" height="100%" viewBox="0 0 600 600" version="1.1" xmlns="http://www.w3.org/2000/svg" xmlns:xlink="http://www.w3.org/1999/xlink" xml:space="preserve" xmlns:serif="http://www.serif.com/" style="fill-rule:evenodd;clip-rule:evenodd;stroke-linejoin:round;stroke-miterlimit:1.41421;"><g id="Layer-1" serif:id="Layer 1"><path d="M419.343,300c0,65.911 -53.432,119.343 -119.343,119.343c-65.911,0 -119.343,-53.432 -119.343,-119.343c0,-65.911 53.432,-119.343 119.343,-119.343c65.911,0 119.343,53.432 119.343,119.343" style="fill-rule:nonzero;stroke:#000;stroke-width:1px;"/><path d="M419.343,300c0,-65.867 -53.476,-119.343 -119.343,-119.343c-65.867,0 -119.343,53.476 -119.343,119.343c0,65.867 53.476,119.343 119.343,119.343c65.867,0 119.343,-53.476 119.343,-119.343Z"/><path d="M299.468,0l0,132.979" style="fill-rule:nonzero;stroke:#000;stroke-width:30px;stroke-linejoin:miter;stroke-miterlimit:10;"/><path d="M300.532,467.021l0,132.979" style="fill-rule:nonzero;stroke:#000;stroke-width:30px;stroke-linejoin:miter;stroke-miterlimit:10;"/><path d="M149.539,40.458l66.49,115.163" style="fill-rule:nonzero;stroke:#000;stroke-width:30px;stroke-linejoin:miter;stroke-miterlimit:10;"/><path d="M383.971,444.379l66.49,115.163" style="fill-rule:nonzero;stroke:#000;stroke-width:30px;stroke-linejoin:miter;stroke-miterlimit:10;"/><path d="M39.927,150.461l115.162,66.489" style="fill-rule:nonzero;stroke:#000;stroke-width:30px;stroke-linejoin:miter;stroke-miterlimit:10;"/><path d="M444.911,383.05l115.163,66.49" style="fill-rule:nonzero;stroke:#000;stroke-width:30px;stroke-linejoin:miter;stroke-miterlimit:10;"/><path d="M0,300.532l132.979,0" style="fill-rule:nonzero;stroke:#000;stroke-width:30px;stroke-linejoin:miter;stroke-miterlimit:10;"/><path d="M467.021,299.468l132.979,0" style="fill-rule:nonzero;stroke:#000;stroke-width:30px;stroke-linejoin:miter;stroke-miterlimit:10;"/><path d="M40.458,450.461l115.163,-66.491" style="fill-rule:nonzero;stroke:#000;stroke-width:30px;stroke-linejoin:miter;stroke-miterlimit:10;"/><path d="M444.379,216.029l115.163,-66.49" style="fill-rule:nonzero;stroke:#000;stroke-width:30px;stroke-linejoin:miter;stroke-miterlimit:10;"/><path d="M150.461,560.074l66.489,-115.164" style="fill-rule:nonzero;stroke:#000;stroke-width:30px;stroke-linejoin:miter;stroke-miterlimit:10;"/><path d="M383.05,155.089l66.49,-115.162" style="fill-rule:nonzero;stroke:#000;stroke-width:30px;stroke-linejoin:miter;stroke-miterlimit:10;"/></g></svg>